<svg id="mermaid-svg" width="100%" xmlns="http://www.w3.org/2000/svg" class="classDiagram" style="max-width: 697.3046875px;" viewBox="0 0 697.3046875 956" role="graphics-document document" aria-roledescription="class" xmlns:xlink="http://www.w3.org/1999/xlink"><style xmlns="http://www.w3.org/1999/xhtml">@import url("https://cdnjs.cloudflare.com/ajax/libs/font-awesome/6.7.2/css/all.min.css");</style><style>#mermaid-svg{font-family:"trebuchet ms",verdana,arial,sans-serif;font-size:16px;fill:#333;}@keyframes edge-animation-frame{from{stroke-dashoffset:0;}}@keyframes dash{to{stroke-dashoffset:0;}}#mermaid-svg .edge-animation-slow{stroke-dasharray:9,5!important;stroke-dashoffset:900;animation:dash 50s linear infinite;stroke-linecap:round;}#mermaid-svg .edge-animation-fast{stroke-dasharray:9,5!important;stroke-dashoffset:900;animation:dash 20s linear infinite;stroke-linecap:round;}#mermaid-svg .error-icon{fill:#552222;}#mermaid-svg .error-text{fill:#552222;stroke:#552222;}#mermaid-svg .edge-thickness-normal{stroke-width:1px;}#mermaid-svg .edge-thickness-thick{stroke-width:3.5px;}#mermaid-svg .edge-pattern-solid{stroke-dasharray:0;}#mermaid-svg .edge-thickness-invisible{stroke-width:0;fill:none;}#mermaid-svg .edge-pattern-dashed{stroke-dasharray:3;}#mermaid-svg .edge-pattern-dotted{stroke-dasharray:2;}#mermaid-svg .marker{fill:#333333;stroke:#333333;}#mermaid-svg .marker.cross{stroke:#333333;}#mermaid-svg svg{font-family:"trebuchet ms",verdana,arial,sans-serif;font-size:16px;}#mermaid-svg p{margin:0;}#mermaid-svg g.classGroup text{fill:#9370DB;stroke:none;font-family:"trebuchet ms",verdana,arial,sans-serif;font-size:10px;}#mermaid-svg g.classGroup text .title{font-weight:bolder;}#mermaid-svg .nodeLabel,#mermaid-svg .edgeLabel{color:#131300;}#mermaid-svg .edgeLabel .label rect{fill:#ECECFF;}#mermaid-svg .label text{fill:#131300;}#mermaid-svg .labelBkg{background:#ECECFF;}#mermaid-svg .edgeLabel .label span{background:#ECECFF;}#mermaid-svg .classTitle{font-weight:bolder;}#mermaid-svg .node rect,#mermaid-svg .node circle,#mermaid-svg .node ellipse,#mermaid-svg .node polygon,#mermaid-svg .node path{fill:#ECECFF;stroke:#9370DB;stroke-width:1px;}#mermaid-svg .divider{stroke:#9370DB;stroke-width:1;}#mermaid-svg g.clickable{cursor:pointer;}#mermaid-svg g.classGroup rect{fill:#ECECFF;stroke:#9370DB;}#mermaid-svg g.classGroup line{stroke:#9370DB;stroke-width:1;}#mermaid-svg .classLabel .box{stroke:none;stroke-width:0;fill:#ECECFF;opacity:0.5;}#mermaid-svg .classLabel .label{fill:#9370DB;font-size:10px;}#mermaid-svg .relation{stroke:#333333;stroke-width:1;fill:none;}#mermaid-svg .dashed-line{stroke-dasharray:3;}#mermaid-svg .dotted-line{stroke-dasharray:1 2;}#mermaid-svg #compositionStart,#mermaid-svg .composition{fill:#333333!important;stroke:#333333!important;stroke-width:1;}#mermaid-svg #compositionEnd,#mermaid-svg .composition{fill:#333333!important;stroke:#333333!important;stroke-width:1;}#mermaid-svg #dependencyStart,#mermaid-svg .dependency{fill:#333333!important;stroke:#333333!important;stroke-width:1;}#mermaid-svg #dependencyStart,#mermaid-svg .dependency{fill:#333333!important;stroke:#333333!important;stroke-width:1;}#mermaid-svg #extensionStart,#mermaid-svg .extension{fill:transparent!important;stroke:#333333!important;stroke-width:1;}#mermaid-svg #extensionEnd,#mermaid-svg .extension{fill:transparent!important;stroke:#333333!important;stroke-width:1;}#mermaid-svg #aggregationStart,#mermaid-svg .aggregation{fill:transparent!important;stroke:#333333!important;stroke-width:1;}#mermaid-svg #aggregationEnd,#mermaid-svg .aggregation{fill:transparent!important;stroke:#333333!important;stroke-width:1;}#mermaid-svg #lollipopStart,#mermaid-svg .lollipop{fill:#ECECFF!important;stroke:#333333!important;stroke-width:1;}#mermaid-svg #lollipopEnd,#mermaid-svg .lollipop{fill:#ECECFF!important;stroke:#333333!important;stroke-width:1;}#mermaid-svg .edgeTerminals{font-size:11px;line-height:initial;}#mermaid-svg .classTitleText{text-anchor:middle;font-size:18px;fill:#333;}#mermaid-svg .label-icon{display:inline-block;height:1em;overflow:visible;vertical-align:-0.125em;}#mermaid-svg .node .label-icon path{fill:currentColor;stroke:revert;stroke-width:revert;}#mermaid-svg :root{--mermaid-font-family:"trebuchet ms",verdana,arial,sans-serif;}</style><g><defs><marker id="mermaid-svg_class-aggregationStart" class="marker aggregation class" refX="18" refY="7" markerWidth="190" markerHeight="240" orient="auto"><path d="M 18,7 L9,13 L1,7 L9,1 Z"/></marker></defs><defs><marker id="mermaid-svg_class-aggregationEnd" class="marker aggregation class" refX="1" refY="7" markerWidth="20" markerHeight="28" orient="auto"><path d="M 18,7 L9,13 L1,7 L9,1 Z"/></marker></defs><defs><marker id="mermaid-svg_class-extensionStart" class="marker extension class" refX="18" refY="7" markerWidth="190" markerHeight="240" orient="auto"><path d="M 1,7 L18,13 V 1 Z"/></marker></defs><defs><marker id="mermaid-svg_class-extensionEnd" class="marker extension class" refX="1" refY="7" markerWidth="20" markerHeight="28" orient="auto"><path d="M 1,1 V 13 L18,7 Z"/></marker></defs><defs><marker id="mermaid-svg_class-compositionStart" class="marker composition class" refX="18" refY="7" markerWidth="190" markerHeight="240" orient="auto"><path d="M 18,7 L9,13 L1,7 L9,1 Z"/></marker></defs><defs><marker id="mermaid-svg_class-compositionEnd" class="marker composition class" refX="1" refY="7" markerWidth="20" markerHeight="28" orient="auto"><path d="M 18,7 L9,13 L1,7 L9,1 Z"/></marker></defs><defs><marker id="mermaid-svg_class-dependencyStart" class="marker dependency class" refX="6" refY="7" markerWidth="190" markerHeight="240" orient="auto"><path d="M 5,7 L9,13 L1,7 L9,1 Z"/></marker></defs><defs><marker id="mermaid-svg_class-dependencyEnd" class="marker dependency class" refX="13" refY="7" markerWidth="20" markerHeight="28" orient="auto"><path d="M 18,7 L9,13 L14,7 L9,1 Z"/></marker></defs><defs><marker id="mermaid-svg_class-lollipopStart" class="marker lollipop class" refX="13" refY="7" markerWidth="190" markerHeight="240" orient="auto"><circle stroke="black" fill="transparent" cx="7" cy="7" r="6"/></marker></defs><defs><marker id="mermaid-svg_class-lollipopEnd" class="marker lollipop class" refX="1" refY="7" markerWidth="190" markerHeight="240" orient="auto"><circle stroke="black" fill="transparent" cx="7" cy="7" r="6"/></marker></defs><g class="root"><g class="clusters"/><g class="edgePaths"><path d="M363.578,248L363.578,252.167C363.578,256.333,363.578,264.667,363.578,272C363.578,279.333,363.578,285.667,363.578,288.833L363.578,292" id="id_WorkshopStore_WorkshopProject_1" class=" edge-thickness-normal edge-pattern-solid relation" style=";;;" data-edge="true" data-et="edge" data-id="id_WorkshopStore_WorkshopProject_1" data-points="W3sieCI6MzYzLjU3ODEyNSwieSI6MjQ4fSx7IngiOjM2My41NzgxMjUsInkiOjI3M30seyJ4IjozNjMuNTc4MTI1LCJ5IjoyOTh9XQ==" marker-end="url(#mermaid-svg_class-dependencyEnd)"/><path d="M189.152,609.796L173.005,621.996C156.858,634.197,124.564,658.599,108.417,673.966C92.27,689.333,92.27,695.667,92.27,698.833L92.27,702" id="id_WorkshopProject_Scene_2" class=" edge-thickness-normal edge-pattern-solid relation" style=";;;" data-edge="true" data-et="edge" data-id="id_WorkshopProject_Scene_2" data-points="W3sieCI6MTg5LjE1MjM0Mzc1LCJ5Ijo2MDkuNzk1NjIzMDY1Mjk0MX0seyJ4Ijo5Mi4yNjk1MzEyNSwieSI6NjgzfSx7IngiOjkyLjI2OTUzMTI1LCJ5Ijo3MDh9XQ==" marker-end="url(#mermaid-svg_class-dependencyEnd)"/><path d="M286.584,658L284.802,662.167C283.02,666.333,279.455,674.667,277.673,695C275.891,715.333,275.891,747.667,275.891,763.833L275.891,780" id="id_WorkshopProject_Character_3" class=" edge-thickness-normal edge-pattern-solid relation" style=";;;" data-edge="true" data-et="edge" data-id="id_WorkshopProject_Character_3" data-points="W3sieCI6Mjg2LjU4NDIyMjU2MDk3NTYsInkiOjY1OH0seyJ4IjoyNzUuODkwNjI1LCJ5Ijo2ODN9LHsieCI6Mjc1Ljg5MDYyNSwieSI6Nzg2fV0=" marker-end="url(#mermaid-svg_class-dependencyEnd)"/><path d="M440.572,658L442.354,662.167C444.137,666.333,447.701,674.667,449.483,695C451.266,715.333,451.266,747.667,451.266,763.833L451.266,780" id="id_WorkshopProject_ConsistencyItem_4" class=" edge-thickness-normal edge-pattern-solid relation" style=";;;" data-edge="true" data-et="edge" data-id="id_WorkshopProject_ConsistencyItem_4" data-points="W3sieCI6NDQwLjU3MjAyNzQzOTAyNDQsInkiOjY1OH0seyJ4Ijo0NTEuMjY1NjI1LCJ5Ijo2ODN9LHsieCI6NDUxLjI2NTYyNSwieSI6Nzg2fV0=" marker-end="url(#mermaid-svg_class-dependencyEnd)"/><path d="M538.004,610.572L553.886,622.644C569.768,634.715,601.533,658.857,617.415,687.095C633.297,715.333,633.297,747.667,633.297,763.833L633.297,780" id="id_WorkshopProject_Soundtrack_5" class=" edge-thickness-normal edge-pattern-solid relation" style=";;;" data-edge="true" data-et="edge" data-id="id_WorkshopProject_Soundtrack_5" data-points="W3sieCI6NTM4LjAwMzkwNjI1LCJ5Ijo2MTAuNTcyNDg1ODA2OTc0OX0seyJ4Ijo2MzMuMjk2ODc1LCJ5Ijo2ODN9LHsieCI6NjMzLjI5Njg3NSwieSI6Nzg2fV0=" marker-end="url(#mermaid-svg_class-dependencyEnd)"/></g><g class="edgeLabels"><g class="edgeLabel"><g class="label" data-id="id_WorkshopStore_WorkshopProject_1" transform="translate(0, 0)"><foreignObject width="0" height="0"><div xmlns="http://www.w3.org/1999/xhtml" class="labelBkg" style="display: table-cell; white-space: nowrap; line-height: 1.5; max-width: 200px; text-align: center;"><span class="edgeLabel "></span></div></foreignObject></g></g><g class="edgeLabel"><g class="label" data-id="id_WorkshopProject_Scene_2" transform="translate(0, 0)"><foreignObject width="0" height="0"><div xmlns="http://www.w3.org/1999/xhtml" class="labelBkg" style="display: table-cell; white-space: nowrap; line-height: 1.5; max-width: 200px; text-align: center;"><span class="edgeLabel "></span></div></foreignObject></g></g><g class="edgeLabel"><g class="label" data-id="id_WorkshopProject_Character_3" transform="translate(0, 0)"><foreignObject width="0" height="0"><div xmlns="http://www.w3.org/1999/xhtml" class="labelBkg" style="display: table-cell; white-space: nowrap; line-height: 1.5; max-width: 200px; text-align: center;"><span class="edgeLabel "></span></div></foreignObject></g></g><g class="edgeLabel"><g class="label" data-id="id_WorkshopProject_ConsistencyItem_4" transform="translate(0, 0)"><foreignObject width="0" height="0"><div xmlns="http://www.w3.org/1999/xhtml" class="labelBkg" style="display: table-cell; white-space: nowrap; line-height: 1.5; max-width: 200px; text-align: center;"><span class="edgeLabel "></span></div></foreignObject></g></g><g class="edgeLabel"><g class="label" data-id="id_WorkshopProject_Soundtrack_5" transform="translate(0, 0)"><foreignObject width="0" height="0"><div xmlns="http://www.w3.org/1999/xhtml" class="labelBkg" style="display: table-cell; white-space: nowrap; line-height: 1.5; max-width: 200px; text-align: center;"><span class="edgeLabel "></span></div></foreignObject></g></g></g><g class="nodes"><g class="node default " id="classId-WorkshopStore-0" transform="translate(363.578125, 128)"><g class="basic label-container"><path d="M-181.17578125 -120 L181.17578125 -120 L181.17578125 120 L-181.17578125 120" stroke="none" stroke-width="0" fill="#ECECFF" style=""/><path d="M-181.17578125 -120 C-85.59094640815108 -120, 9.993888433697833 -120, 181.17578125 -120 M-181.17578125 -120 C-37.33552947730308 -120, 106.50472229539383 -120, 181.17578125 -120 M181.17578125 -120 C181.17578125 -71.08272263955264, 181.17578125 -22.165445279105285, 181.17578125 120 M181.17578125 -120 C181.17578125 -46.268031011704295, 181.17578125 27.46393797659141, 181.17578125 120 M181.17578125 120 C54.86931067694351 120, -71.43715989611297 120, -181.17578125 120 M181.17578125 120 C60.95304255610391 120, -59.26969613779218 120, -181.17578125 120 M-181.17578125 120 C-181.17578125 27.000504146076167, -181.17578125 -65.99899170784767, -181.17578125 -120 M-181.17578125 120 C-181.17578125 45.751955843115496, -181.17578125 -28.496088313769008, -181.17578125 -120" stroke="#9370DB" stroke-width="1.3" fill="none" stroke-dasharray="0 0" style=""/></g><g class="annotation-group text" transform="translate(0, -96)"/><g class="label-group text" transform="translate(-59.4140625, -96)"><g class="label" style="font-weight: bolder" transform="translate(0,-12)"><foreignObject width="118.828125" height="24"><div xmlns="http://www.w3.org/1999/xhtml" style="display: table-cell; white-space: nowrap; line-height: 1.5; max-width: 149px; text-align: center;"><span class="nodeLabel markdown-node-label" style=""><p>WorkshopStore</p></span></div></foreignObject></g></g><g class="members-group text" transform="translate(-169.17578125, -48)"><g class="label" style="" transform="translate(0,-12)"><foreignObject width="195.34375" height="24"><div xmlns="http://www.w3.org/1999/xhtml" style="display: table-cell; white-space: nowrap; line-height: 1.5; max-width: 230px; text-align: center;"><span class="nodeLabel markdown-node-label" style=""><p>projects: WorkshopProject[]</p></span></div></foreignObject></g><g class="label" style="" transform="translate(0,12)"><foreignObject width="152.953125" height="24"><div xmlns="http://www.w3.org/1999/xhtml" style="display: table-cell; white-space: nowrap; line-height: 1.5; max-width: 192px; text-align: center;"><span class="nodeLabel markdown-node-label" style=""><p>activeProjectId: string</p></span></div></foreignObject></g><g class="label" style="" transform="translate(0,36)"><foreignObject width="278.9375" height="24"><div xmlns="http://www.w3.org/1999/xhtml" style="display: table-cell; white-space: nowrap; line-height: 1.5; max-width: 305px; text-align: center;"><span class="nodeLabel markdown-node-label" style=""><p>customTemplates: WorkshopTemplate[]</p></span></div></foreignObject></g><g class="label" style="" transform="translate(0,60)"><foreignObject width="268.546875" height="24"><div xmlns="http://www.w3.org/1999/xhtml" style="display: table-cell; white-space: nowrap; line-height: 1.5; max-width: 299px; text-align: center;"><span class="nodeLabel markdown-node-label" style=""><p>consistencyLibrary: ConsistencyItem[]</p></span></div></foreignObject></g><g class="label" style="" transform="translate(0,84)"><foreignObject width="185.015625" height="24"><div xmlns="http://www.w3.org/1999/xhtml" style="display: table-cell; white-space: nowrap; line-height: 1.5; max-width: 218px; text-align: center;"><span class="nodeLabel markdown-node-label" style=""><p>execution: ExecutionState</p></span></div></foreignObject></g><g class="label" style="" transform="translate(0,108)"><foreignObject width="151.203125" height="24"><div xmlns="http://www.w3.org/1999/xhtml" style="display: table-cell; white-space: nowrap; line-height: 1.5; max-width: 186px; text-align: center;"><span class="nodeLabel markdown-node-label" style=""><p>stateVersion: number</p></span></div></foreignObject></g></g><g class="methods-group text" transform="translate(-169.17578125, 120)"/><g class="divider" style=""><path d="M-181.17578125 -72 C-84.43262319985341 -72, 12.31053485029318 -72, 181.17578125 -72 M-181.17578125 -72 C-104.55537558295183 -72, -27.93496991590365 -72, 181.17578125 -72" stroke="#9370DB" stroke-width="1.3" fill="none" stroke-dasharray="0 0" style=""/></g><g class="divider" style=""><path d="M-181.17578125 96 C-101.18726544346866 96, -21.198749636937322 96, 181.17578125 96 M-181.17578125 96 C-46.50899842526567 96, 88.15778439946865 96, 181.17578125 96" stroke="#9370DB" stroke-width="1.3" fill="none" stroke-dasharray="0 0" style=""/></g></g><g class="node default " id="classId-WorkshopProject-1" transform="translate(363.578125, 478)"><g class="basic label-container"><path d="M-174.42578125 -180 L174.42578125 -180 L174.42578125 180 L-174.42578125 180" stroke="none" stroke-width="0" fill="#ECECFF" style=""/><path d="M-174.42578125 -180 C-62.65897186229796 -180, 49.10783752540408 -180, 174.42578125 -180 M-174.42578125 -180 C-101.43672113954743 -180, -28.44766102909486 -180, 174.42578125 -180 M174.42578125 -180 C174.42578125 -40.81789314184849, 174.42578125 98.36421371630303, 174.42578125 180 M174.42578125 -180 C174.42578125 -95.36048215067784, 174.42578125 -10.720964301355679, 174.42578125 180 M174.42578125 180 C89.59182337243 180, 4.757865494859999 180, -174.42578125 180 M174.42578125 180 C80.51651024449994 180, -13.392760761000119 180, -174.42578125 180 M-174.42578125 180 C-174.42578125 71.01647988940462, -174.42578125 -37.96704022119076, -174.42578125 -180 M-174.42578125 180 C-174.42578125 37.89859924029625, -174.42578125 -104.2028015194075, -174.42578125 -180" stroke="#9370DB" stroke-width="1.3" fill="none" stroke-dasharray="0 0" style=""/></g><g class="annotation-group text" transform="translate(0, -156)"/><g class="label-group text" transform="translate(-66.0859375, -156)"><g class="label" style="font-weight: bolder" transform="translate(0,-12)"><foreignObject width="132.171875" height="24"><div xmlns="http://www.w3.org/1999/xhtml" style="display: table-cell; white-space: nowrap; line-height: 1.5; max-width: 161px; text-align: center;"><span class="nodeLabel markdown-node-label" style=""><p>WorkshopProject</p></span></div></foreignObject></g></g><g class="members-group text" transform="translate(-162.42578125, -108)"><g class="label" style="" transform="translate(0,-12)"><foreignObject width="60.46875" height="24"><div xmlns="http://www.w3.org/1999/xhtml" style="display: table-cell; white-space: nowrap; line-height: 1.5; max-width: 107px; text-align: center;"><span class="nodeLabel markdown-node-label" style=""><p>id: string</p></span></div></foreignObject></g><g class="label" style="" transform="translate(0,12)"><foreignObject width="88.046875" height="24"><div xmlns="http://www.w3.org/1999/xhtml" style="display: table-cell; white-space: nowrap; line-height: 1.5; max-width: 130px; text-align: center;"><span class="nodeLabel markdown-node-label" style=""><p>name: string</p></span></div></foreignObject></g><g class="label" style="" transform="translate(0,36)"><foreignObject width="90.703125" height="24"><div xmlns="http://www.w3.org/1999/xhtml" style="display: table-cell; white-space: nowrap; line-height: 1.5; max-width: 131px; text-align: center;"><span class="nodeLabel markdown-node-label" style=""><p>status: string</p></span></div></foreignObject></g><g class="label" style="" transform="translate(0,60)"><foreignObject width="139.625" height="24"><div xmlns="http://www.w3.org/1999/xhtml" style="display: table-cell; white-space: nowrap; line-height: 1.5; max-width: 176px; text-align: center;"><span class="nodeLabel markdown-node-label" style=""><p>currentStage: string</p></span></div></foreignObject></g><g class="label" style="" transform="translate(0,84)"><foreignObject width="86.25" height="24"><div xmlns="http://www.w3.org/1999/xhtml" style="display: table-cell; white-space: nowrap; line-height: 1.5; max-width: 130px; text-align: center;"><span class="nodeLabel markdown-node-label" style=""><p>script: string</p></span></div></foreignObject></g><g class="label" style="" transform="translate(0,108)"><foreignObject width="113.84375" height="24"><div xmlns="http://www.w3.org/1999/xhtml" style="display: table-cell; white-space: nowrap; line-height: 1.5; max-width: 149px; text-align: center;"><span class="nodeLabel markdown-node-label" style=""><p>scenes: Scene[]</p></span></div></foreignObject></g><g class="label" style="" transform="translate(0,132)"><foreignObject width="162.734375" height="24"><div xmlns="http://www.w3.org/1999/xhtml" style="display: table-cell; white-space: nowrap; line-height: 1.5; max-width: 196px; text-align: center;"><span class="nodeLabel markdown-node-label" style=""><p>characters: Character[]</p></span></div></foreignObject></g><g class="label" style="" transform="translate(0,156)"><foreignObject width="258.765625" height="24"><div xmlns="http://www.w3.org/1999/xhtml" style="display: table-cell; white-space: nowrap; line-height: 1.5; max-width: 287px; text-align: center;"><span class="nodeLabel markdown-node-label" style=""><p>consistencyItems: ConsistencyItem[]</p></span></div></foreignObject></g><g class="label" style="" transform="translate(0,180)"><foreignObject width="184.984375" height="24"><div xmlns="http://www.w3.org/1999/xhtml" style="display: table-cell; white-space: nowrap; line-height: 1.5; max-width: 218px; text-align: center;"><span class="nodeLabel markdown-node-label" style=""><p>soundtracks: Soundtrack[]</p></span></div></foreignObject></g><g class="label" style="" transform="translate(0,204)"><foreignObject width="171.640625" height="24"><div xmlns="http://www.w3.org/1999/xhtml" style="display: table-cell; white-space: nowrap; line-height: 1.5; max-width: 204px; text-align: center;"><span class="nodeLabel markdown-node-label" style=""><p>settings: ProjectSettings</p></span></div></foreignObject></g><g class="label" style="" transform="translate(0,228)"><foreignObject width="177" height="24"><div xmlns="http://www.w3.org/1999/xhtml" style="display: table-cell; white-space: nowrap; line-height: 1.5; max-width: 210px; text-align: center;"><span class="nodeLabel markdown-node-label" style=""><p>agentBlackboard?: string</p></span></div></foreignObject></g></g><g class="methods-group text" transform="translate(-162.42578125, 180)"/><g class="divider" style=""><path d="M-174.42578125 -132 C-78.49429254563368 -132, 17.437196158732633 -132, 174.42578125 -132 M-174.42578125 -132 C-82.92022125985959 -132, 8.585338730280824 -132, 174.42578125 -132" stroke="#9370DB" stroke-width="1.3" fill="none" stroke-dasharray="0 0" style=""/></g><g class="divider" style=""><path d="M-174.42578125 156 C-37.982296336034636 156, 98.46118857793073 156, 174.42578125 156 M-174.42578125 156 C-56.284404962509356 156, 61.85697132498129 156, 174.42578125 156" stroke="#9370DB" stroke-width="1.3" fill="none" stroke-dasharray="0 0" style=""/></g></g><g class="node default " id="classId-Scene-2" transform="translate(92.26953125, 828)"><g class="basic label-container"><path d="M-84.26953125 -120 L84.26953125 -120 L84.26953125 120 L-84.26953125 120" stroke="none" stroke-width="0" fill="#ECECFF" style=""/><path d="M-84.26953125 -120 C-31.219013518157958 -120, 21.831504213684084 -120, 84.26953125 -120 M-84.26953125 -120 C-30.136336853138083 -120, 23.996857543723834 -120, 84.26953125 -120 M84.26953125 -120 C84.26953125 -54.61856779525807, 84.26953125 10.762864409483853, 84.26953125 120 M84.26953125 -120 C84.26953125 -39.79295046072417, 84.26953125 40.41409907855166, 84.26953125 120 M84.26953125 120 C33.40193634921513 120, -17.465658551569746 120, -84.26953125 120 M84.26953125 120 C49.7533732054627 120, 15.237215160925402 120, -84.26953125 120 M-84.26953125 120 C-84.26953125 27.328570555492774, -84.26953125 -65.34285888901445, -84.26953125 -120 M-84.26953125 120 C-84.26953125 37.897343845849804, -84.26953125 -44.20531230830039, -84.26953125 -120" stroke="#9370DB" stroke-width="1.3" fill="none" stroke-dasharray="0 0" style=""/></g><g class="annotation-group text" transform="translate(0, -96)"/><g class="label-group text" transform="translate(-23.5703125, -96)"><g class="label" style="font-weight: bolder" transform="translate(0,-12)"><foreignObject width="47.140625" height="24"><div xmlns="http://www.w3.org/1999/xhtml" style="display: table-cell; white-space: nowrap; line-height: 1.5; max-width: 88px; text-align: center;"><span class="nodeLabel markdown-node-label" style=""><p>Scene</p></span></div></foreignObject></g></g><g class="members-group text" transform="translate(-72.26953125, -48)"><g class="label" style="" transform="translate(0,-12)"><foreignObject width="60.46875" height="24"><div xmlns="http://www.w3.org/1999/xhtml" style="display: table-cell; white-space: nowrap; line-height: 1.5; max-width: 107px; text-align: center;"><span class="nodeLabel markdown-node-label" style=""><p>id: string</p></span></div></foreignObject></g><g class="label" style="" transform="translate(0,12)"><foreignObject width="100.5" height="24"><div xmlns="http://www.w3.org/1999/xhtml" style="display: table-cell; white-space: nowrap; line-height: 1.5; max-width: 142px; text-align: center;"><span class="nodeLabel markdown-node-label" style=""><p>order: number</p></span></div></foreignObject></g><g class="label" style="" transform="translate(0,36)"><foreignObject width="97.8125" height="24"><div xmlns="http://www.w3.org/1999/xhtml" style="display: table-cell; white-space: nowrap; line-height: 1.5; max-width: 141px; text-align: center;"><span class="nodeLabel markdown-node-label" style=""><p>prompt: string</p></span></div></foreignObject></g><g class="label" style="" transform="translate(0,60)"><foreignObject width="116.5" height="24"><div xmlns="http://www.w3.org/1999/xhtml" style="display: table-cell; white-space: nowrap; line-height: 1.5; max-width: 158px; text-align: center;"><span class="nodeLabel markdown-node-label" style=""><p>voiceover: string</p></span></div></foreignObject></g><g class="label" style="" transform="translate(0,84)"><foreignObject width="120.96875" height="24"><div xmlns="http://www.w3.org/1999/xhtml" style="display: table-cell; white-space: nowrap; line-height: 1.5; max-width: 161px; text-align: center;"><span class="nodeLabel markdown-node-label" style=""><p>duration: number</p></span></div></foreignObject></g><g class="label" style="" transform="translate(0,108)"><foreignObject width="108.5" height="24"><div xmlns="http://www.w3.org/1999/xhtml" style="display: table-cell; white-space: nowrap; line-height: 1.5; max-width: 149px; text-align: center;"><span class="nodeLabel markdown-node-label" style=""><p>images: Asset[]</p></span></div></foreignObject></g></g><g class="methods-group text" transform="translate(-72.26953125, 120)"/><g class="divider" style=""><path d="M-84.26953125 -72 C-28.484314068233545 -72, 27.30090311353291 -72, 84.26953125 -72 M-84.26953125 -72 C-43.021398249459665 -72, -1.77326524891933 -72, 84.26953125 -72" stroke="#9370DB" stroke-width="1.3" fill="none" stroke-dasharray="0 0" style=""/></g><g class="divider" style=""><path d="M-84.26953125 96 C-33.583301921623594 96, 17.102927406752812 96, 84.26953125 96 M-84.26953125 96 C-43.861812884954794 96, -3.4540945199095887 96, 84.26953125 96" stroke="#9370DB" stroke-width="1.3" fill="none" stroke-dasharray="0 0" style=""/></g></g><g class="node default " id="classId-Character-3" transform="translate(275.890625, 828)"><g class="basic label-container"><path d="M-49.3515625 -42 L49.3515625 -42 L49.3515625 42 L-49.3515625 42" stroke="none" stroke-width="0" fill="#ECECFF" style=""/><path d="M-49.3515625 -42 C-28.925039503853686 -42, -8.498516507707372 -42, 49.3515625 -42 M-49.3515625 -42 C-23.93889349612662 -42, 1.4737755077467583 -42, 49.3515625 -42 M49.3515625 -42 C49.3515625 -14.488856479619209, 49.3515625 13.022287040761583, 49.3515625 42 M49.3515625 -42 C49.3515625 -11.806692685153518, 49.3515625 18.386614629692964, 49.3515625 42 M49.3515625 42 C20.108024695679397 42, -9.135513108641206 42, -49.3515625 42 M49.3515625 42 C11.533549694562566 42, -26.284463110874867 42, -49.3515625 42 M-49.3515625 42 C-49.3515625 20.344692546551208, -49.3515625 -1.3106149068975839, -49.3515625 -42 M-49.3515625 42 C-49.3515625 24.05616678648514, -49.3515625 6.112333572970279, -49.3515625 -42" stroke="#9370DB" stroke-width="1.3" fill="none" stroke-dasharray="0 0" style=""/></g><g class="annotation-group text" transform="translate(0, -18)"/><g class="label-group text" transform="translate(-37.3515625, -18)"><g class="label" style="font-weight: bolder" transform="translate(0,-12)"><foreignObject width="74.703125" height="24"><div xmlns="http://www.w3.org/1999/xhtml" style="display: table-cell; white-space: nowrap; line-height: 1.5; max-width: 113px; text-align: center;"><span class="nodeLabel markdown-node-label" style=""><p>Character</p></span></div></foreignObject></g></g><g class="members-group text" transform="translate(-37.3515625, 30)"/><g class="methods-group text" transform="translate(-37.3515625, 60)"/><g class="divider" style=""><path d="M-49.3515625 6 C-23.450311865799677 6, 2.450938768400647 6, 49.3515625 6 M-49.3515625 6 C-12.297472274052907 6, 24.756617951894185 6, 49.3515625 6" stroke="#9370DB" stroke-width="1.3" fill="none" stroke-dasharray="0 0" style=""/></g><g class="divider" style=""><path d="M-49.3515625 24 C-14.443386826539474 24, 20.464788846921053 24, 49.3515625 24 M-49.3515625 24 C-11.776017017728194 24, 25.799528464543613 24, 49.3515625 24" stroke="#9370DB" stroke-width="1.3" fill="none" stroke-dasharray="0 0" style=""/></g></g><g class="node default " id="classId-ConsistencyItem-4" transform="translate(451.265625, 828)"><g class="basic label-container"><path d="M-76.0234375 -42 L76.0234375 -42 L76.0234375 42 L-76.0234375 42" stroke="none" stroke-width="0" fill="#ECECFF" style=""/><path d="M-76.0234375 -42 C-36.28402776449245 -42, 3.4553819710151004 -42, 76.0234375 -42 M-76.0234375 -42 C-21.034852321124433 -42, 33.953732857751135 -42, 76.0234375 -42 M76.0234375 -42 C76.0234375 -20.280636625467842, 76.0234375 1.4387267490643154, 76.0234375 42 M76.0234375 -42 C76.0234375 -19.75674173107668, 76.0234375 2.48651653784664, 76.0234375 42 M76.0234375 42 C31.383325598044586 42, -13.256786303910829 42, -76.0234375 42 M76.0234375 42 C31.578346038906922 42, -12.866745422186156 42, -76.0234375 42 M-76.0234375 42 C-76.0234375 15.0690963092942, -76.0234375 -11.861807381411602, -76.0234375 -42 M-76.0234375 42 C-76.0234375 15.346472851073091, -76.0234375 -11.307054297853817, -76.0234375 -42" stroke="#9370DB" stroke-width="1.3" fill="none" stroke-dasharray="0 0" style=""/></g><g class="annotation-group text" transform="translate(0, -18)"/><g class="label-group text" transform="translate(-64.0234375, -18)"><g class="label" style="font-weight: bolder" transform="translate(0,-12)"><foreignObject width="128.046875" height="24"><div xmlns="http://www.w3.org/1999/xhtml" style="display: table-cell; white-space: nowrap; line-height: 1.5; max-width: 158px; text-align: center;"><span class="nodeLabel markdown-node-label" style=""><p>ConsistencyItem</p></span></div></foreignObject></g></g><g class="members-group text" transform="translate(-64.0234375, 30)"/><g class="methods-group text" transform="translate(-64.0234375, 60)"/><g class="divider" style=""><path d="M-76.0234375 6 C-38.86736558841874 6, -1.7112936768374851 6, 76.0234375 6 M-76.0234375 6 C-41.61349341181944 6, -7.203549323638882 6, 76.0234375 6" stroke="#9370DB" stroke-width="1.3" fill="none" stroke-dasharray="0 0" style=""/></g><g class="divider" style=""><path d="M-76.0234375 24 C-42.25173550254157 24, -8.480033505083142 24, 76.0234375 24 M-76.0234375 24 C-25.290554443705688 24, 25.442328612588625 24, 76.0234375 24" stroke="#9370DB" stroke-width="1.3" fill="none" stroke-dasharray="0 0" style=""/></g></g><g class="node default " id="classId-Soundtrack-5" transform="translate(633.296875, 828)"><g class="basic label-container"><path d="M-56.0078125 -42 L56.0078125 -42 L56.0078125 42 L-56.0078125 42" stroke="none" stroke-width="0" fill="#ECECFF" style=""/><path d="M-56.0078125 -42 C-30.72376519217733 -42, -5.439717884354657 -42, 56.0078125 -42 M-56.0078125 -42 C-30.075589234249048 -42, -4.143365968498095 -42, 56.0078125 -42 M56.0078125 -42 C56.0078125 -20.585354374897474, 56.0078125 0.8292912502050527, 56.0078125 42 M56.0078125 -42 C56.0078125 -10.61662872479581, 56.0078125 20.76674255040838, 56.0078125 42 M56.0078125 42 C14.646819370222751 42, -26.714173759554498 42, -56.0078125 42 M56.0078125 42 C21.829585498251625 42, -12.34864150349675 42, -56.0078125 42 M-56.0078125 42 C-56.0078125 18.618909692138068, -56.0078125 -4.762180615723864, -56.0078125 -42 M-56.0078125 42 C-56.0078125 22.970331318176843, -56.0078125 3.940662636353686, -56.0078125 -42" stroke="#9370DB" stroke-width="1.3" fill="none" stroke-dasharray="0 0" style=""/></g><g class="annotation-group text" transform="translate(0, -18)"/><g class="label-group text" transform="translate(-44.0078125, -18)"><g class="label" style="font-weight: bolder" transform="translate(0,-12)"><foreignObject width="88.015625" height="24"><div xmlns="http://www.w3.org/1999/xhtml" style="display: table-cell; white-space: nowrap; line-height: 1.5; max-width: 123px; text-align: center;"><span class="nodeLabel markdown-node-label" style=""><p>Soundtrack</p></span></div></foreignObject></g></g><g class="members-group text" transform="translate(-44.0078125, 30)"/><g class="methods-group text" transform="translate(-44.0078125, 60)"/><g class="divider" style=""><path d="M-56.0078125 6 C-16.2142523248434 6, 23.5793078503132 6, 56.0078125 6 M-56.0078125 6 C-17.625952216099385 6, 20.75590806780123 6, 56.0078125 6" stroke="#9370DB" stroke-width="1.3" fill="none" stroke-dasharray="0 0" style=""/></g><g class="divider" style=""><path d="M-56.0078125 24 C-29.186174539323375 24, -2.3645365786467494 24, 56.0078125 24 M-56.0078125 24 C-21.412370909655124 24, 13.183070680689752 24, 56.0078125 24" stroke="#9370DB" stroke-width="1.3" fill="none" stroke-dasharray="0 0" style=""/></g></g></g></g></g></svg>